{
  "scenes" : [
    { "nodes" : [ 0 ] },
    { "nodes" : [ 1 ] }
  ],
  "nodes" : [
    { "mesh" : 0 },
    { "mesh" : 1 }
  ],
  "meshes" : [
    {
      "primitives" : [ {
        "attributes" : {
          "POSITION" : 1
        },
        "indices" : 0,
        "material" : 0
      } ]
    },
    {
      "primitives" : [ {
        "attributes" : {
          "POSITION" : 1
        },
        "indices" : 2,
        "material" : 1
      } ]
    }
  ],
  "materials" : [ {
    "pbrMetallicRoughness" : {
      "baseColorFactor" : [ 0.0, 1.0, 0.0, 1.0 ]
    } }, {
    "pbrMetallicRoughness" : {
      "baseColorFactor" : [ 1.0, 0.0, 0.0, 1.0 ]
    }
  } ],
  "buffers" : [ {
    "uri" : "data:application/gltf-buffer;base64,",
    "byteLength" : 108
  } ],
  "bufferViews" : [ {
    "buffer" : 0,
    "byteOffset" : 0,
    "byteLength" : 12,
    "target" : 34963
  }, {
    "buffer" : 0,
    "byteOffset" : 12,
    "byteLength" : 96,
    "byteStride" : 12,
    "target" : 34962
  } ],
  "accessors" : [ {
    "bufferView" : 0,
    "byteOffset" : 0,
    "componentType" : 5123,
    "count" : 3,
    "type" : "SCALAR",
    "max" : [ 3 ],
    "min" : [ 0 ]
  }, {
    "bufferView" : 1,
    "byteOffset" : 0,
    "componentType" : 5126,
    "count" : 4,
    "type" : "VEC3",
    "max" : [ 1.0, 1.0, 0.0 ],
    "min" : [ 0.0, 0.0, 0.0 ]
  }, {
    "bufferView" : 0,
    "byteOffset" : 6,
    "componentType" : 5123,
    "count" : 3,
    "type" : "SCALAR",
    "max" : [ 6 ],
    "min" : [ 3 ]
  } ],
  "asset" : {
    "version" : "2.0"
  }
}
